# xmcd
#
# Track frame offsets: 
#        150
#        10273
#        23380
#        35019
#        47405
#        59732
#        71012
#        82923
#        93762
#        105723
#        117492
#        129976
#        141283
#        152922
#        168851
#
# Disc length: 2389 seconds
#
# Revision: 0
# Processed by: cddbd v1.4PL0 Copyright (c) Steve Scherf et al.
# Submitted via: ExactAudioCopy v0.90b4
#
DISCID=bd09530f
DTITLE=John Lee Hooker - His Greatest Hits
DYEAR=2001
DGENRE=Blues
TTITLE0=Dimples
TTITLE1=I'm So Excited
TTITLE2=I Love You Honey
TTITLE3=Crawlin' Black Spider
TTITLE4=I"M In The Mood
TTITLE5=Boom Boom
TTITLE6=Mama You Got A Daughter
TTITLE7=Maudie
TTITLE8=I'm Mad Again
TTITLE9=Boogie Chillen
TTITLE10=Trouble Blues
TTITLE11=This Is Hip
TTITLE12=Little Wheel
TTITLE13=It Serves Me Right To Suffer
TTITLE14=Big Legs, Tight Skirt
EXTD=
EXTT0=
EXTT1=
EXTT2=
EXTT3=
EXTT4=
EXTT5=
EXTT6=
EXTT7=
EXTT8=
EXTT9=
EXTT10=
EXTT11=
EXTT12=
EXTT13=
EXTT14=
PLAYORDER=
